<svg width="288" height="34" viewBox="0 0 288 34" fill="none" xmlns="http://www.w3.org/2000/svg">
<path d="M0.786776 32.5477C0.537002 32.6655 0.429984 32.9634 0.547744 33.2132C0.665504 33.463 0.96345 33.57 1.21322 33.4523L0.786776 32.5477ZM288 33L284.687 28.2719L282.249 33.5054L288 33ZM1.21322 33.4523C2.14242 33.0142 3.07394 32.5802 4.00778 32.1504L3.58968 31.242C2.65306 31.6731 1.71875 32.1084 0.786776 32.5477L1.21322 33.4523ZM9.63352 29.6237C11.5148 28.7995 13.405 27.992 15.3041 27.2015L14.9198 26.2783C13.015 27.0712 11.1191 27.8811 9.23224 28.7077L9.63352 29.6237ZM21.019 24.8841C22.9294 24.1298 24.8483 23.3926 26.7756 22.6725L26.4257 21.7358C24.4926 22.458 22.5679 23.1974 20.6518 23.9539L21.019 24.8841ZM32.5716 20.5679C34.5085 19.8848 36.4534 19.2189 38.4063 18.5704L38.0912 17.6214C36.1324 18.2718 34.1816 18.9397 32.239 19.6248L32.5716 20.5679ZM44.2763 16.6813C46.2366 16.0703 48.2046 15.4768 50.1801 14.901L49.9003 13.9409C47.9188 14.5185 45.945 15.1138 43.9788 15.7266L44.2763 16.6813ZM56.1167 13.2298C58.098 12.6917 60.0865 12.1714 62.0821 11.6688L61.8379 10.6991C59.8363 11.2031 57.8418 11.7251 55.8546 12.2647L56.1167 13.2298ZM68.0755 10.2182C70.0755 9.75363 72.0822 9.3069 74.0957 8.87819L73.8874 7.90012C71.868 8.33011 69.8552 8.77817 67.8493 9.24412L68.0755 10.2182ZM80.1382 7.6497C82.1533 7.2593 84.1749 6.88689 86.2027 6.53264L86.0306 5.54756C83.9967 5.90287 81.9692 6.27639 79.948 6.66795L80.1382 7.6497ZM92.2877 5.52715C94.3155 5.2112 96.3493 4.91336 98.3889 4.63381L98.2531 3.64307C96.2074 3.92346 94.1676 4.22218 92.1338 4.53907L92.2877 5.52715ZM104.506 3.85245C106.544 3.61104 108.587 3.38784 110.637 3.18303L110.537 2.18799C108.482 2.39341 106.432 2.61726 104.388 2.85939L104.506 3.85245ZM116.778 2.62575C118.823 2.45897 120.873 2.31048 122.928 2.18044L122.865 1.18243C120.804 1.31286 118.748 1.46179 116.697 1.62906L116.778 2.62575ZM129.086 1.8468C131.136 1.75437 133.191 1.68028 135.25 1.6247L135.223 0.625062C133.158 0.680809 131.097 0.755114 129.041 0.847815L129.086 1.8468ZM141.415 1.51385C142.442 1.50462 143.47 1.5 144.5 1.5V0.5C143.467 0.5 142.436 0.504637 141.406 0.513893L141.415 1.51385ZM144.5 1.5C145.53 1.5 146.558 1.50462 147.585 1.51385L147.594 0.513893C146.564 0.504638 145.533 0.5 144.5 0.5V1.5ZM153.75 1.6247C155.809 1.68028 157.864 1.75437 159.914 1.8468L159.959 0.847817C157.903 0.755115 155.842 0.68081 153.777 0.625063L153.75 1.6247ZM166.072 2.18044C168.127 2.31048 170.177 2.45897 172.222 2.62575L172.303 1.62906C170.252 1.46179 168.196 1.31286 166.135 1.18243L166.072 2.18044ZM178.363 3.18303C180.413 3.38784 182.456 3.61104 184.494 3.85246L184.612 2.8594C182.568 2.61726 180.518 2.39341 178.463 2.18799L178.363 3.18303ZM190.611 4.63381C192.651 4.91337 194.685 5.21121 196.712 5.52715L196.866 4.53908C194.832 4.22219 192.793 3.92346 190.747 3.64307L190.611 4.63381ZM202.797 6.53264C204.825 6.8869 206.847 7.25931 208.862 7.6497L209.052 6.66795C207.031 6.27639 205.003 5.90287 202.969 5.54756L202.797 6.53264ZM214.904 8.8782C216.918 9.30691 218.925 9.75363 220.924 10.2182L221.151 9.24412C219.145 8.77817 217.132 8.33011 215.113 7.90012L214.904 8.8782ZM226.918 11.6688C228.914 12.1714 230.902 12.6917 232.883 13.2298L233.145 12.2647C231.158 11.7251 229.164 11.2031 227.162 10.6991L226.918 11.6688ZM238.82 14.901C240.795 15.4768 242.763 16.0703 244.724 16.6813L245.021 15.7266C243.055 15.1138 241.081 14.5185 239.1 13.9409L238.82 14.901ZM250.594 18.5704C252.547 19.2189 254.492 19.8848 256.428 20.5679L256.761 19.6248C254.818 18.9397 252.868 18.2718 250.909 17.6214L250.594 18.5704ZM262.224 22.6726C264.152 23.3926 266.071 24.1299 267.981 24.8841L268.348 23.9539C266.432 23.1975 264.507 22.458 262.574 21.7358L262.224 22.6726ZM273.696 27.2015C275.595 27.9921 277.485 28.7995 279.366 29.6237L279.768 28.7077C277.881 27.8811 275.985 27.0712 274.08 26.2783L273.696 27.2015ZM0.786776 32.5477C0.537002 32.6655 0.429984 32.9634 0.547744 33.2132C0.665504 33.463 0.96345 33.57 1.21322 33.4523L0.786776 32.5477ZM288 33L284.687 28.2719L282.249 33.5054L288 33ZM1.21322 33.4523C2.14242 33.0142 3.07394 32.5802 4.00778 32.1504L3.58968 31.242C2.65306 31.6731 1.71875 32.1084 0.786776 32.5477L1.21322 33.4523ZM9.63352 29.6237C11.5148 28.7995 13.405 27.992 15.3041 27.2015L14.9198 26.2783C13.015 27.0712 11.1191 27.8811 9.23224 28.7077L9.63352 29.6237ZM21.019 24.8841C22.9294 24.1298 24.8483 23.3926 26.7756 22.6725L26.4257 21.7358C24.4926 22.458 22.5679 23.1974 20.6518 23.9539L21.019 24.8841ZM32.5716 20.5679C34.5085 19.8848 36.4534 19.2189 38.4063 18.5704L38.0912 17.6214C36.1324 18.2718 34.1816 18.9397 32.239 19.6248L32.5716 20.5679ZM44.2763 16.6813C46.2366 16.0703 48.2046 15.4768 50.1801 14.901L49.9003 13.9409C47.9188 14.5185 45.945 15.1138 43.9788 15.7266L44.2763 16.6813ZM56.1167 13.2298C58.098 12.6917 60.0865 12.1714 62.0821 11.6688L61.8379 10.6991C59.8363 11.2031 57.8418 11.7251 55.8546 12.2647L56.1167 13.2298ZM68.0755 10.2182C70.0755 9.75363 72.0822 9.3069 74.0957 8.87819L73.8874 7.90012C71.868 8.33011 69.8552 8.77817 67.8493 9.24412L68.0755 10.2182ZM80.1382 7.6497C82.1533 7.2593 84.1749 6.88689 86.2027 6.53264L86.0306 5.54756C83.9967 5.90287 81.9692 6.27639 79.948 6.66795L80.1382 7.6497ZM92.2877 5.52715C94.3155 5.2112 96.3493 4.91336 98.3889 4.63381L98.2531 3.64307C96.2074 3.92346 94.1676 4.22218 92.1338 4.53907L92.2877 5.52715ZM104.506 3.85245C106.544 3.61104 108.587 3.38784 110.637 3.18303L110.537 2.18799C108.482 2.39341 106.432 2.61726 104.388 2.85939L104.506 3.85245ZM116.778 2.62575C118.823 2.45897 120.873 2.31048 122.928 2.18044L122.865 1.18243C120.804 1.31286 118.748 1.46179 116.697 1.62906L116.778 2.62575ZM129.086 1.8468C131.136 1.75437 133.191 1.68028 135.25 1.6247L135.223 0.625062C133.158 0.680809 131.097 0.755114 129.041 0.847815L129.086 1.8468ZM141.415 1.51385C142.442 1.50462 143.47 1.5 144.5 1.5V0.5C143.467 0.5 142.436 0.504637 141.406 0.513893L141.415 1.51385ZM144.5 1.5C145.53 1.5 146.558 1.50462 147.585 1.51385L147.594 0.513893C146.564 0.504638 145.533 0.5 144.5 0.5V1.5ZM153.75 1.6247C155.809 1.68028 157.864 1.75437 159.914 1.8468L159.959 0.847817C157.903 0.755115 155.842 0.68081 153.777 0.625063L153.75 1.6247ZM166.072 2.18044C168.127 2.31048 170.177 2.45897 172.222 2.62575L172.303 1.62906C170.252 1.46179 168.196 1.31286 166.135 1.18243L166.072 2.18044ZM178.363 3.18303C180.413 3.38784 182.456 3.61104 184.494 3.85246L184.612 2.8594C182.568 2.61726 180.518 2.39341 178.463 2.18799L178.363 3.18303ZM190.611 4.63381C192.651 4.91337 194.685 5.21121 196.712 5.52715L196.866 4.53908C194.832 4.22219 192.793 3.92346 190.747 3.64307L190.611 4.63381ZM202.797 6.53264C204.825 6.8869 206.847 7.25931 208.862 7.6497L209.052 6.66795C207.031 6.27639 205.003 5.90287 202.969 5.54756L202.797 6.53264ZM214.904 8.8782C216.918 9.30691 218.925 9.75363 220.924 10.2182L221.151 9.24412C219.145 8.77817 217.132 8.33011 215.113 7.90012L214.904 8.8782ZM226.918 11.6688C228.914 12.1714 230.902 12.6917 232.883 13.2298L233.145 12.2647C231.158 11.7251 229.164 11.2031 227.162 10.6991L226.918 11.6688ZM238.82 14.901C240.795 15.4768 242.763 16.0703 244.724 16.6813L245.021 15.7266C243.055 15.1138 241.081 14.5185 239.1 13.9409L238.82 14.901ZM250.594 18.5704C252.547 19.2189 254.492 19.8848 256.428 20.5679L256.761 19.6248C254.818 18.9397 252.868 18.2718 250.909 17.6214L250.594 18.5704ZM262.224 22.6726C264.152 23.3926 266.071 24.1299 267.981 24.8841L268.348 23.9539C266.432 23.1975 264.507 22.458 262.574 21.7358L262.224 22.6726ZM273.696 27.2015C275.595 27.9921 277.485 28.7995 279.366 29.6237L279.768 28.7077C277.881 27.8811 275.985 27.0712 274.08 26.2783L273.696 27.2015Z" fill="#AFAFAF"/>
</svg>
