<svg width="288" height="34" viewBox="0 0 288 34" fill="none" xmlns="http://www.w3.org/2000/svg">
<path d="M0.784774 1.08289C0.535524 0.96402 0.429827 0.665604 0.548693 0.416355C0.66756 0.167103 0.965977 0.061409 1.21523 0.180275L0.784774 1.08289ZM288 0.63158L284.708 5.37426L282.246 0.151562L288 0.63158ZM1.21523 0.180275C2.14318 0.622814 3.07346 1.06119 4.00605 1.49537L3.58398 2.40193C2.64859 1.96644 1.71552 1.52675 0.784774 1.08289L1.21523 0.180275ZM9.62477 4.04815C11.504 4.881 13.3922 5.69697 15.2891 6.49588L14.901 7.41748C12.9983 6.61617 11.1045 5.79774 9.21959 4.96239L9.62477 4.04815ZM20.9986 8.83817C22.9074 9.60061 24.8248 10.3459 26.7506 11.0739L26.397 12.0093C24.4654 11.2791 22.5422 10.5316 20.6277 9.76683L20.9986 8.83817ZM32.5427 13.2019C34.4784 13.8927 36.4223 14.5661 38.3741 15.2219L38.0556 16.1699C36.0979 15.5121 34.1482 14.8366 32.2066 14.1437L32.5427 13.2019ZM44.2418 17.1328C46.2015 17.7508 48.1689 18.3512 50.1438 18.9338L49.8608 19.8929C47.88 19.3086 45.9066 18.7064 43.941 18.0865L44.2418 17.1328ZM56.0792 20.6247C58.0604 21.1691 60.0488 21.6957 62.0443 22.2043L61.7973 23.1733C59.7958 22.6632 57.8014 22.135 55.8142 21.5889L56.0792 20.6247ZM68.0379 23.6724C70.038 24.1427 72.045 24.5948 74.0587 25.0288L73.8481 26.0063C71.8283 25.5711 69.8152 25.1175 67.809 24.6459L68.0379 23.6724ZM80.1026 26.2724C82.1183 26.6677 84.1405 27.0447 86.1689 27.4034L85.9948 28.3881C83.9602 28.0283 81.932 27.6502 79.9102 27.2537L80.1026 26.2724ZM92.2562 28.4214C94.2849 28.7414 96.3196 29.043 98.3601 29.3261L98.2227 30.3166C96.176 30.0326 94.1352 29.7301 92.1004 29.4092L92.2562 28.4214ZM104.48 30.1173C106.519 30.3618 108.564 30.5879 110.614 30.7953L110.514 31.7902C108.457 31.5822 106.406 31.3555 104.361 31.1102L104.48 30.1173ZM116.759 31.3597C118.806 31.5287 120.857 31.6791 122.913 31.8108L122.849 32.8087C120.787 32.6766 118.729 32.5258 116.677 32.3563L116.759 31.3597ZM129.076 32.1487C131.127 32.2423 133.183 32.3174 135.244 32.3737L135.216 33.3733C133.15 33.3168 131.087 33.2416 129.03 33.1477L129.076 32.1487ZM141.413 32.486C142.441 32.4953 143.47 32.5 144.5 32.5V33.5C143.467 33.5 142.435 33.4953 141.404 33.4859L141.413 32.486ZM144.5 32.5C145.53 32.5 146.559 32.4953 147.587 32.486L147.597 33.4859C146.565 33.4953 145.533 33.5 144.5 33.5V32.5ZM153.756 32.3737C155.817 32.3174 157.873 32.2423 159.924 32.1487L159.97 33.1477C157.913 33.2416 155.85 33.3168 153.784 33.3733L153.756 32.3737ZM166.087 31.8108C168.143 31.6791 170.194 31.5287 172.241 31.3597L172.323 32.3563C170.271 32.5258 168.213 32.6766 166.151 32.8087L166.087 31.8108ZM178.386 30.7953C180.436 30.5879 182.481 30.3618 184.52 30.1173L184.639 31.1102C182.594 31.3555 180.543 31.5822 178.486 31.7902L178.386 30.7953ZM190.64 29.3261C192.68 29.043 194.715 28.7414 196.744 28.4214L196.9 29.4092C194.865 29.7301 192.824 30.0326 190.777 30.3166L190.64 29.3261ZM202.831 27.4034C204.86 27.0447 206.882 26.6677 208.897 26.2724L209.09 27.2537C207.068 27.6502 205.04 28.0283 203.005 28.3881L202.831 27.4034ZM214.941 25.0288C216.955 24.5948 218.962 24.1427 220.962 23.6724L221.191 24.6459C219.185 25.1175 217.172 25.5711 215.152 26.0063L214.941 25.0288ZM226.956 22.2043C228.951 21.6957 230.94 21.1691 232.921 20.6247L233.186 21.5889C231.199 22.135 229.204 22.6632 227.203 23.1733L226.956 22.2043ZM238.856 18.9338C240.831 18.3512 242.799 17.7508 244.758 17.1328L245.059 18.0865C243.093 18.7064 241.12 19.3086 239.139 19.8929L238.856 18.9338ZM250.626 15.2219C252.578 14.5661 254.522 13.8927 256.457 13.2019L256.793 14.1437C254.852 14.8366 252.902 15.5121 250.944 16.1698L250.626 15.2219ZM262.249 11.0738C264.175 10.3459 266.093 9.6006 268.001 8.83816L268.372 9.76682C266.458 10.5316 264.535 11.2791 262.603 12.0092L262.249 11.0738ZM273.711 6.49586C275.608 5.69695 277.496 4.88098 279.375 4.04814L279.78 4.96238C277.896 5.79773 276.002 6.61615 274.099 7.41747L273.711 6.49586ZM0.784774 1.08289C0.535524 0.96402 0.429827 0.665604 0.548693 0.416355C0.66756 0.167103 0.965977 0.061409 1.21523 0.180275L0.784774 1.08289ZM288 0.63158L284.708 5.37426L282.246 0.151562L288 0.63158ZM1.21523 0.180275C2.14318 0.622814 3.07346 1.06119 4.00605 1.49537L3.58398 2.40193C2.64859 1.96644 1.71552 1.52675 0.784774 1.08289L1.21523 0.180275ZM9.62477 4.04815C11.504 4.881 13.3922 5.69697 15.2891 6.49588L14.901 7.41748C12.9983 6.61617 11.1045 5.79774 9.21959 4.96239L9.62477 4.04815ZM20.9986 8.83817C22.9074 9.60061 24.8248 10.3459 26.7506 11.0739L26.397 12.0093C24.4654 11.2791 22.5422 10.5316 20.6277 9.76683L20.9986 8.83817ZM32.5427 13.2019C34.4784 13.8927 36.4223 14.5661 38.3741 15.2219L38.0556 16.1699C36.0979 15.5121 34.1482 14.8366 32.2066 14.1437L32.5427 13.2019ZM44.2418 17.1328C46.2015 17.7508 48.1689 18.3512 50.1438 18.9338L49.8608 19.8929C47.88 19.3086 45.9066 18.7064 43.941 18.0865L44.2418 17.1328ZM56.0792 20.6247C58.0604 21.1691 60.0488 21.6957 62.0443 22.2043L61.7973 23.1733C59.7958 22.6632 57.8014 22.135 55.8142 21.5889L56.0792 20.6247ZM68.0379 23.6724C70.038 24.1427 72.045 24.5948 74.0587 25.0288L73.8481 26.0063C71.8283 25.5711 69.8152 25.1175 67.809 24.6459L68.0379 23.6724ZM80.1026 26.2724C82.1183 26.6677 84.1405 27.0447 86.1689 27.4034L85.9948 28.3881C83.9602 28.0283 81.932 27.6502 79.9102 27.2537L80.1026 26.2724ZM92.2562 28.4214C94.2849 28.7414 96.3196 29.043 98.3601 29.3261L98.2227 30.3166C96.176 30.0326 94.1352 29.7301 92.1004 29.4092L92.2562 28.4214ZM104.48 30.1173C106.519 30.3618 108.564 30.5879 110.614 30.7953L110.514 31.7902C108.457 31.5822 106.406 31.3555 104.361 31.1102L104.48 30.1173ZM116.759 31.3597C118.806 31.5287 120.857 31.6791 122.913 31.8108L122.849 32.8087C120.787 32.6766 118.729 32.5258 116.677 32.3563L116.759 31.3597ZM129.076 32.1487C131.127 32.2423 133.183 32.3174 135.244 32.3737L135.216 33.3733C133.15 33.3168 131.087 33.2416 129.03 33.1477L129.076 32.1487ZM141.413 32.486C142.441 32.4953 143.47 32.5 144.5 32.5V33.5C143.467 33.5 142.435 33.4953 141.404 33.4859L141.413 32.486ZM144.5 32.5C145.53 32.5 146.559 32.4953 147.587 32.486L147.597 33.4859C146.565 33.4953 145.533 33.5 144.5 33.5V32.5ZM153.756 32.3737C155.817 32.3174 157.873 32.2423 159.924 32.1487L159.97 33.1477C157.913 33.2416 155.85 33.3168 153.784 33.3733L153.756 32.3737ZM166.087 31.8108C168.143 31.6791 170.194 31.5287 172.241 31.3597L172.323 32.3563C170.271 32.5258 168.213 32.6766 166.151 32.8087L166.087 31.8108ZM178.386 30.7953C180.436 30.5879 182.481 30.3618 184.52 30.1173L184.639 31.1102C182.594 31.3555 180.543 31.5822 178.486 31.7902L178.386 30.7953ZM190.64 29.3261C192.68 29.043 194.715 28.7414 196.744 28.4214L196.9 29.4092C194.865 29.7301 192.824 30.0326 190.777 30.3166L190.64 29.3261ZM202.831 27.4034C204.86 27.0447 206.882 26.6677 208.897 26.2724L209.09 27.2537C207.068 27.6502 205.04 28.0283 203.005 28.3881L202.831 27.4034ZM214.941 25.0288C216.955 24.5948 218.962 24.1427 220.962 23.6724L221.191 24.6459C219.185 25.1175 217.172 25.5711 215.152 26.0063L214.941 25.0288ZM226.956 22.2043C228.951 21.6957 230.94 21.1691 232.921 20.6247L233.186 21.5889C231.199 22.135 229.204 22.6632 227.203 23.1733L226.956 22.2043ZM238.856 18.9338C240.831 18.3512 242.799 17.7508 244.758 17.1328L245.059 18.0865C243.093 18.7064 241.12 19.3086 239.139 19.8929L238.856 18.9338ZM250.626 15.2219C252.578 14.5661 254.522 13.8927 256.457 13.2019L256.793 14.1437C254.852 14.8366 252.902 15.5121 250.944 16.1698L250.626 15.2219ZM262.249 11.0738C264.175 10.3459 266.093 9.6006 268.001 8.83816L268.372 9.76682C266.458 10.5316 264.535 11.2791 262.603 12.0092L262.249 11.0738ZM273.711 6.49586C275.608 5.69695 277.496 4.88098 279.375 4.04814L279.78 4.96238C277.896 5.79773 276.002 6.61615 274.099 7.41747L273.711 6.49586Z" fill="#AFAFAF"/>
</svg>
